<svg viewBox="18 22 115 108" fill="none" xmlns="http://www.w3.org/2000/svg" aria-hidden="true">
  <path
    fill="white"
    fill-opacity="0.92"
    d="M62.3449144,25.3093847 C66.6764157,24.6254635 76.6502675,25.1384044 81.2667361,26.2212798 C90.7276469,28.5580108 101.898361,35.4542168 107.768685,42.6923836 C111.017311,46.6819243 114.265937,52.0963009 115.519793,55.5159073 C118.027504,62.2981265 117.62855,61.842179 120.706196,61.5002183 C122.188025,61.329238 124.581749,60.9302839 125.892599,60.6453168 C129.540179,59.8474086 129.996126,60.417343 129.996126,66.1166869 C129.996126,69.4223063 129.768152,71.0181226 129.198218,71.4740701 C128.742271,71.8160307 126.519526,72.499952 124.239789,73.012893 C121.903058,73.4688405 119.794301,74.0957683 119.566327,74.323742 C119.28136,74.6087092 119.167373,75.6915846 119.28136,76.7174665 C119.45234,78.8832171 119.224366,78.8262237 126.57652,78.3132828 L129.711159,78.085309 L129.711159,88.9140624 L127.431421,89.6549771 C125.328439,90.2401374 123.169875,90.6030819 120.991163,90.7378524 L116.773648,91.079813 L114.835871,95.3543209 C108.737574,108.747779 96.4839842,118.949605 81.8366704,122.882152 C75.4534053,124.591955 63.7697504,124.648948 57.5004721,122.939145 C48.2190012,120.510812 39.8309825,115.466131 33.3352541,108.405818 C24.5012711,99.1728813 19.9987894,87.6032133 19.9987894,74.3807355 C19.8666155,61.9081626 24.65881,49.8867176 33.3352541,40.925587 C41.4283224,32.3765711 51.2881873,27.0761813 62.3449144,25.3093847 Z M79.8419001,38.8168297 C76.707261,37.8479413 67.360337,37.2210134 64.1687044,37.6769609 C50.9462267,39.7287247 38.8636176,49.8165634 34.4181294,62.5261002 C31.7394378,70.1062276 31.9674116,81.2199481 34.9880638,88.344128 C38.0657095,95.6962816 44.5059681,103.162422 50.9462267,106.866996 C55.1067477,109.26072 62.1739341,111.426471 67.3033436,111.825425 C76.8212478,112.566339 87.5360143,108.690786 94.6601942,101.908566 C98.7637217,98.090006 103.20921,91.9917081 103.20921,90.2249115 C103.20921,87.7172002 88.6188897,86.0643904 80.5258214,87.6602067 C74.8834709,88.743082 74.5985037,88.4581149 74.8264775,81.9038694 C74.9974578,77.173414 75.0544512,76.9454402 76.5362806,76.2045255 C81.0387623,74.0957683 92.7794107,74.2667486 101.955354,76.6034796 C104.178098,77.2304074 106.172869,77.5153746 106.286856,77.3443943 C106.799797,76.3185124 107.084764,73.9817814 106.742803,73.411847 C106.514829,73.0698864 104.007118,72.0440045 101.21444,71.2460964 C97.0539186,69.9922407 94.8881679,69.7072735 89.5307847,69.6502801 C85.940198,69.6502801 81.4947098,69.9352473 79.6709198,70.3342013 C75.0544512,71.3600832 74.7124906,70.9611292 74.7124906,64.9198247 L74.7129944,64.6214158 C74.7307512,59.532352 75.232959,58.7505538 78.5880444,58.0236186 C82.1786311,57.2257104 95.1731351,57.5676711 99.1056824,58.5365595 C101.043459,59.0495005 102.810256,59.1634873 102.981236,58.9355136 C103.608164,57.9096317 99.1626758,51.6403534 95.1161417,47.821793 C90.7837245,43.6871141 85.5572239,40.6058189 79.8419001,38.8168297 Z"
  />
</svg>
